<svg version="1.0" xmlns="http://www.w3.org/2000/svg"
 width="2048pt" height="512pt" viewBox="0 0 2048 512"
 preserveAspectRatio="xMidYMid meet">

<g transform="translate(0.000000,512.000000) scale(0.100000,-0.100000)"
fill="#9060FF" stroke="none">
<path d="M9519 4768 c-52 -57 -133 -146 -179 -198 -46 -52 -113 -127 -150
-165 -68 -74 -124 -135 -255 -280 -163 -181 -229 -250 -241 -253 -6 -2 -23 21
-37 50 -14 29 -59 123 -100 208 -41 85 -109 227 -151 315 -42 88 -97 203 -124
255 l-47 95 -184 -3 c-102 -1 -187 -4 -189 -6 -2 -3 10 -31 26 -63 17 -32 54
-107 83 -168 28 -60 80 -168 114 -240 125 -260 194 -402 245 -510 105 -219
159 -333 225 -470 130 -270 145 -305 130 -305 -8 0 -54 32 -102 70 -198 158
-246 196 -422 337 -101 82 -196 157 -212 168 -15 11 -55 43 -89 70 -192 155
-221 177 -228 171 -4 -4 -8 -101 -10 -216 l-3 -209 44 -33 c24 -18 114 -89
198 -156 85 -68 179 -144 209 -168 30 -24 143 -113 250 -199 107 -85 209 -166
225 -179 188 -152 457 -363 481 -378 23 -14 44 -45 84 -131 29 -61 86 -179
125 -262 40 -82 88 -184 108 -225 19 -41 68 -145 110 -230 41 -85 109 -227
152 -315 42 -88 93 -194 112 -235 20 -41 67 -140 105 -220 39 -80 108 -226
155 -325 47 -99 95 -191 107 -203 75 -83 237 -83 312 0 12 12 60 104 107 203
47 99 116 245 155 325 38 80 85 179 105 220 19 41 69 146 111 233 42 86 110
228 152 315 42 86 92 191 111 232 20 41 68 143 108 225 39 83 96 201 125 262
40 86 61 117 84 131 24 15 293 226 481 378 17 13 118 94 225 179 107 86 220
175 250 199 30 24 124 100 209 168 84 67 174 138 198 156 l44 33 -3 209 c-2
115 -6 212 -10 216 -7 6 -36 -16 -228 -171 -34 -27 -74 -59 -89 -70 -16 -11
-111 -86 -212 -168 -176 -141 -224 -179 -422 -337 -48 -38 -94 -70 -102 -70
-15 0 0 35 130 305 66 137 120 251 225 470 52 108 117 244 244 508 35 72 87
182 115 242 29 61 66 136 83 168 16 32 28 60 26 63 -2 2 -87 5 -189 6 l-184 3
-47 -95 c-27 -52 -82 -167 -124 -255 -42 -88 -110 -230 -151 -315 -41 -85 -86
-179 -100 -208 -14 -29 -31 -52 -37 -50 -12 3 -78 72 -241 253 -131 144 -186
205 -255 280 -36 38 -118 129 -182 200 -64 72 -145 161 -181 200 l-64 69 -6
-249 -5 -250 33 -40 c18 -22 50 -58 71 -80 20 -22 68 -74 105 -116 37 -41 80
-89 95 -105 16 -16 65 -70 109 -119 44 -49 105 -117 136 -150 141 -151 219
-241 219 -254 0 -13 -40 -98 -270 -576 -195 -407 -235 -485 -245 -485 -5 0
-26 24 -45 53 -19 28 -39 57 -45 63 -5 6 -44 57 -85 113 -41 56 -89 121 -106
144 -17 23 -77 104 -133 180 -226 307 -300 403 -327 428 -72 65 -190 64 -254
-2 -22 -24 -123 -158 -321 -426 -56 -76 -116 -157 -133 -180 -17 -23 -65 -88
-106 -144 -41 -56 -80 -107 -85 -113 -6 -6 -26 -35 -45 -63 -19 -29 -40 -53
-45 -53 -10 0 -50 78 -245 485 -231 479 -270 563 -270 576 1 13 81 107 219
254 31 33 92 101 136 150 44 49 93 103 109 119 15 16 58 64 95 105 37 42 85
94 105 116 21 22 53 58 71 80 l33 40 -6 248 -7 248 -96 -103z m827 -1880 c54
-73 106 -142 114 -155 22 -32 253 -347 375 -510 l106 -143 -47 -97 c-25 -54
-72 -152 -104 -218 -32 -66 -83 -172 -113 -235 -93 -195 -252 -527 -358 -747
-38 -79 -73 -143 -79 -143 -9 0 -38 57 -205 405 -32 66 -87 181 -122 255 -36
74 -85 178 -110 230 -51 107 -152 318 -220 458 l-44 92 106 143 c122 163 353
478 375 510 48 70 214 287 220 287 4 0 52 -60 106 -132z"/>
</g>
</svg>
